<svg width="48" height="48" viewBox="0 0 48 48" fill="none" xmlns="http://www.w3.org/2000/svg">
<rect x="0.5" y="0.5" width="47" height="47" rx="23.5" stroke="#4F4F4F"/>
<path d="M34.5 20.25H33V18.75C33 17.9216 32.3285 17.25 31.5 17.25H13.5C12.6715 17.25 12 17.9216 12 18.75V29.25C12 30.0784 12.6715 30.75 13.5 30.75H31.5C32.3285 30.75 33 30.0784 33 29.25V27.75H34.5C35.3285 27.75 36 27.0784 36 26.25V21.75C36 20.9216 35.3285 20.25 34.5 20.25ZM30 27.75H15V20.25H30V27.75Z" fill="#FEFDFF"/>
<path d="M28.5 21.75H16.5V26.25H28.5V21.75Z" fill="#FEFDFF"/>
</svg>
