<svg width="48" height="48" viewBox="0 0 48 48" fill="none" xmlns="http://www.w3.org/2000/svg">
<rect x="0.5" y="0.5" width="47" height="47" rx="23.5" stroke="#4F4F4F"/>
<path d="M12 21.6681V26.3318C12 27.3004 12.7853 28.0858 13.7538 28.0858H17.0194V19.9146H13.7538C12.7853 19.9146 12 20.6996 12 21.6681Z" fill="#FEFDFF"/>
<path d="M25.1403 16.6419C24.9637 16.5336 24.7435 16.5247 24.5589 16.6187L18.0699 19.9146V28.0858L24.5589 31.3818C24.7436 31.4753 24.9637 31.4664 25.1403 31.3582C25.3167 31.2499 25.4243 31.0574 25.4243 30.8507V17.1497C25.4243 16.9426 25.3167 16.7501 25.1403 16.6419Z" fill="#FEFDFF"/>
<path d="M31.1495 19.625C30.912 19.3613 30.5061 19.3403 30.2426 19.5778C29.9793 19.8149 29.9582 20.2207 30.1954 20.4844C31.0931 21.4806 31.5413 22.7379 31.5416 24C31.5413 25.2627 31.0931 26.5199 30.1957 27.5156C29.9582 27.7789 29.9793 28.1852 30.2426 28.4227C30.5059 28.6597 30.912 28.6387 31.1492 28.3755C32.2668 27.1356 32.8262 25.5656 32.8257 24C32.8261 22.4349 32.2668 20.8644 31.1495 19.625Z" fill="#FEFDFF"/>
<path d="M33.51 17.4999C33.2728 17.2366 32.8669 17.2156 32.6033 17.4531C32.3398 17.6901 32.3187 18.096 32.5561 18.3597C33.9962 19.9578 34.7156 21.9764 34.716 24C34.7155 26.0235 33.9962 28.0421 32.5561 29.6406C32.3187 29.904 32.3399 30.3098 32.6033 30.5473C32.8669 30.7848 33.2727 30.7639 33.5102 30.5C35.1698 28.6579 36.0005 26.3265 36 24C36.0005 21.6735 35.1698 19.3421 33.51 17.4999Z" fill="#FEFDFF"/>
<path d="M27.8796 21.7047C27.616 21.9418 27.5949 22.3481 27.8324 22.6114C28.1883 23.0065 28.365 23.5011 28.3654 24.0001C28.365 24.499 28.1883 24.9936 27.8324 25.3892C27.5949 25.6525 27.6161 26.0584 27.8796 26.2958C28.1431 26.5333 28.5489 26.5118 28.7862 26.2486C29.3609 25.6111 29.6501 24.8033 29.6494 24.0001C29.6501 23.1968 29.3609 22.3895 28.7862 21.752C28.5489 21.4883 28.1429 21.4673 27.8796 21.7047Z" fill="#FEFDFF"/>
</svg>
