<svg width="48" height="48" viewBox="0 0 48 48" fill="none" xmlns="http://www.w3.org/2000/svg">
<rect x="0.5" y="0.5" width="47" height="47" rx="23.5" stroke="#4F4F4F"/>
<path d="M12 21.604V26.3963C12 27.391 12.8068 28.1981 13.802 28.1981H17.1574V19.8022H13.802C12.8068 19.8022 12 20.6088 12 21.604Z" fill="#FEFDFF"/>
<path d="M25.5015 16.4399C25.32 16.3282 25.0939 16.3195 24.9042 16.4157L18.2368 19.8022V28.1981L24.9042 31.5846C25.0939 31.6807 25.32 31.6716 25.5015 31.5604C25.683 31.4491 25.7934 31.2518 25.7934 31.039V16.9613C25.7934 16.7484 25.683 16.5511 25.5015 16.4399Z" fill="#FEFDFF"/>
<path d="M33.2399 23.8814L35.7892 21.3317C36.0703 21.0506 36.0703 20.5951 35.7892 20.3141C35.5081 20.033 35.0527 20.033 34.7716 20.3141L32.2223 22.8634L29.6725 20.3141C29.3914 20.033 28.936 20.033 28.6549 20.3141C28.3738 20.5951 28.3738 21.0506 28.6549 21.3317L31.2042 23.8814L28.6549 26.4307C28.3738 26.7118 28.3738 27.1672 28.6549 27.4483C28.936 27.7294 29.3914 27.7294 29.6725 27.4483L32.2223 24.899L34.7716 27.4483C35.0527 27.7294 35.5081 27.7294 35.7892 27.4483C36.0703 27.1672 36.0703 26.7118 35.7892 26.4307L33.2399 23.8814Z" fill="#FEFDFF"/>
</svg>
