<svg width="131" height="152" viewBox="0 0 131 152" fill="none" xmlns="http://www.w3.org/2000/svg">
<path d="M130.674 139.068C129.251 112.042 104.961 100.861 104.961 100.861C99.1571 98.1478 88.6353 92.8359 81.7367 89.3244C90.5752 79.6548 93.1857 63.8891 93.5922 61.6458C95.4367 51.4953 94.5084 38.9317 94.5084 38.9317C92.8217 14.5006 68.1554 14.1168 65.5723 14.1425C65.4297 14.1425 65.337 14.144 65.337 14.144C65.337 14.144 65.2582 14.1425 65.1413 14.144C62.7994 14.1136 37.8615 14.361 36.1657 38.9317C36.1657 38.9317 35.2374 51.4938 37.0819 61.6458C37.2018 62.2996 37.5143 64.1212 38.1074 66.5844C42.7534 72.6836 49.9262 75.6746 55.8132 77.1384C56.5534 76.4194 57.5621 75.9719 58.6799 75.9719H69.4098C71.6806 75.9719 73.519 77.8117 73.519 80.0825C73.519 82.3548 71.6806 84.1961 69.4098 84.1961H58.6799C56.9856 84.1961 55.5372 83.1739 54.9046 81.716C50.5135 80.6481 45.4321 78.7885 40.8968 75.5896C42.7062 80.2871 45.2849 85.326 48.9403 89.3259C42.0418 92.8373 31.5243 98.1476 25.7165 100.861C25.7165 100.861 1.42939 112.042 0.00342554 139.068C0.00342554 139.068 -0.418359 143.563 8.09863 145.264C8.09863 145.264 34.1907 151.219 65.34 151.219C96.4923 151.219 122.584 145.264 122.584 145.264C131.1 143.563 130.674 139.068 130.674 139.068Z" fill="#111116"/>
<path d="M27.8174 70.4071H30.4096V39.96C30.4158 39.8842 30.4338 39.8113 30.4338 39.734V35.2381C30.4338 27.2232 32.9077 20.7267 37.7872 15.9277C47.8802 5.99712 65.1202 6.13228 65.4113 6.17305C65.6161 6.15798 82.7121 5.91212 92.8503 15.8351C97.7632 20.6434 100.255 27.1701 100.255 35.2381V39.9919C100.255 40.0389 100.267 40.0814 100.267 40.1268V70.4069H102.86C109.239 70.4069 114.41 65.236 114.41 58.8578V47.7577C114.41 42.6264 111.06 38.2823 106.427 36.779V35.2394C106.427 25.4499 103.31 17.4382 97.1687 11.4255C85.1954 -0.293078 66.0698 0.0103489 65.4009 0.00120657C64.5971 -0.00645326 45.4532 -0.241437 33.4856 11.4986C27.3654 17.5051 24.2605 25.4926 24.2605 35.2381V36.7716C19.6221 38.2746 16.2683 42.622 16.2683 47.7563V58.8563C16.2686 65.2362 21.4407 70.4071 27.8174 70.4071Z" fill="#111116"/>
</svg>
