<svg width="42" height="42" viewBox="0 0 42 42" fill="none" xmlns="http://www.w3.org/2000/svg">
<rect x="0.5" y="0.5" width="41" height="41" rx="20.5" stroke="#4F4F4F"/>
<path d="M22.2739 14.7146C22.2739 14.9608 22.2739 15.7629 22.2739 16.9025H26.1921L25.7673 20.3953H22.2739C22.2739 25.7818 22.2739 33 22.2739 33H17.6371C17.6371 33 17.6371 25.8773 17.6371 20.3953H15.2209V16.9025H17.6371C17.6371 15.5174 17.6371 14.5324 17.6371 14.2582C17.6371 12.9516 17.5386 12.3316 18.0938 11.3191C18.6493 10.3066 20.2161 8.96835 22.926 9.00057C25.6366 9.03396 26.7792 9.29472 26.7792 9.29472L26.1921 13.0172C26.1921 13.0172 24.4612 12.5601 23.6116 12.723C22.7632 12.8859 22.2739 13.4086 22.2739 14.7146Z" fill="#FEFDFF"/>
</svg>
