<svg width="152" height="152" viewBox="0 0 152 152" fill="none" xmlns="http://www.w3.org/2000/svg">
<path d="M12.6016 76.391C12.6016 41.1612 40.8111 12.6016 75.6091 12.6016C110.408 12.6016 138.617 41.1612 138.617 76.391V109.429C138.619 114.576 138.62 118.106 137.716 121.205C135.946 127.265 131.716 132.277 126.079 134.992C123.197 136.38 119.753 136.929 114.73 137.73L113.912 137.861C112.125 138.147 110.599 138.39 109.333 138.516C108.015 138.647 106.672 138.688 105.298 138.414C100.776 137.512 97.0476 134.287 95.4623 129.905C94.9809 128.574 94.8108 127.223 94.7327 125.886C94.6583 124.6 94.6583 123.036 94.6583 121.206L94.6577 94.9161C94.6545 92.2351 94.652 89.9283 95.2651 87.953C96.6683 83.4328 100.333 80.0046 104.894 78.9441C106.888 78.4804 109.159 78.665 111.798 78.8792L112.386 78.9265L113.077 78.9819C118.015 79.3745 121.394 79.6435 124.262 80.7172C126.278 81.472 128.147 82.511 129.826 83.7857V76.391C129.826 46.0771 105.552 21.5025 75.6091 21.5025C45.6667 21.5025 21.3933 46.0771 21.3933 76.391V83.7857C23.072 82.511 24.9413 81.472 26.9566 80.7172C29.8245 79.6435 33.203 79.3745 38.141 78.9819L38.833 78.9265L39.4204 78.8792C42.06 78.665 44.3313 78.4804 46.325 78.9441C50.8861 80.0046 54.5502 83.4328 55.9536 87.953C56.567 89.9283 56.5642 92.2351 56.5609 94.9161L56.5605 121.206C56.5605 123.036 56.5606 124.6 56.4859 125.886C56.4082 127.223 56.2378 128.574 55.7562 129.905C54.1714 134.287 50.4426 137.512 45.921 138.414C44.5467 138.688 43.203 138.647 41.8857 138.516C40.6194 138.39 39.0933 138.147 37.3072 137.861L36.4883 137.73C31.4661 136.929 28.022 136.38 25.1396 134.992C19.5031 132.277 15.2724 127.265 13.5031 121.205C12.757 118.65 12.627 115.801 12.6053 111.995L12.6016 110.77V76.391Z" fill="#111116"/>
</svg>
