<svg width="42" height="42" viewBox="0 0 42 42" fill="none" xmlns="http://www.w3.org/2000/svg">
<rect x="0.5" y="0.5" width="41" height="41" rx="20.5" stroke="#4F4F4F"/>
<path d="M21 11.1622C24.2041 11.1622 24.5836 11.1744 25.849 11.2321C27.019 11.2855 27.6544 11.481 28.0773 11.6453C28.6373 11.863 29.0371 12.1231 29.457 12.543C29.8769 12.9629 30.137 13.3627 30.3546 13.9227C30.519 14.3456 30.7145 14.981 30.7679 16.151C30.8256 17.4164 30.8378 17.7959 30.8378 21C30.8378 24.2042 30.8256 24.5837 30.7679 25.849C30.7145 27.019 30.519 27.6544 30.3546 28.0773C30.137 28.6374 29.8769 29.0372 29.457 29.4571C29.0371 29.877 28.6373 30.137 28.0773 30.3547C27.6544 30.519 27.019 30.7145 25.849 30.7679C24.5838 30.8256 24.2043 30.8378 21 30.8378C17.7956 30.8378 17.4161 30.8256 16.151 30.7679C14.981 30.7145 14.3456 30.519 13.9227 30.3547C13.3626 30.137 12.9628 29.877 12.5429 29.4571C12.123 29.0372 11.863 28.6374 11.6453 28.0773C11.481 27.6544 11.2855 27.019 11.2321 25.8491C11.1744 24.5837 11.1622 24.2042 11.1622 21C11.1622 17.7959 11.1744 17.4164 11.2321 16.151C11.2855 14.981 11.481 14.3456 11.6453 13.9227C11.863 13.3627 12.123 12.9629 12.5429 12.543C12.9628 12.1231 13.3626 11.863 13.9227 11.6453C14.3456 11.481 14.981 11.2855 16.1509 11.2321C17.4163 11.1744 17.7958 11.1622 21 11.1622ZM21 9C17.7409 9 17.3323 9.01381 16.0524 9.07221C14.7751 9.13052 13.9028 9.33334 13.1395 9.63001C12.3504 9.93668 11.6812 10.347 11.0141 11.0141C10.3469 11.6812 9.93663 12.3504 9.62996 13.1395C9.3333 13.9029 9.13047 14.7752 9.07217 16.0525C9.01377 17.3323 9 17.741 9 21C9 24.2591 9.01377 24.6677 9.07217 25.9476C9.13047 27.2249 9.3333 28.0972 9.62996 28.8605C9.93663 29.6496 10.3469 30.3188 11.0141 30.9859C11.6812 31.6531 12.3504 32.0634 13.1395 32.37C13.9028 32.6667 14.7751 32.8695 16.0524 32.9278C17.3323 32.9862 17.7409 33 21 33C24.259 33 24.6677 32.9862 25.9475 32.9278C27.2248 32.8695 28.0971 32.6667 28.8605 32.37C29.6496 32.0634 30.3188 31.6531 30.9859 30.9859C31.653 30.3188 32.0633 29.6496 32.37 28.8605C32.6667 28.0972 32.8695 27.2249 32.9278 25.9476C32.9862 24.6677 33 24.2591 33 21C33 17.741 32.9862 17.3323 32.9278 16.0525C32.8695 14.7752 32.6667 13.9029 32.37 13.1395C32.0633 12.3504 31.653 11.6812 30.9859 11.0141C30.3188 10.347 29.6496 9.93668 28.8605 9.63001C28.0971 9.33334 27.2248 9.13052 25.9475 9.07221C24.6677 9.01381 24.259 9 21 9ZM21 14.8378C17.5967 14.8378 14.8378 17.5968 14.8378 21C14.8378 24.4033 17.5967 27.1622 21 27.1622C24.4032 27.1622 27.1622 24.4033 27.1622 21C27.1622 17.5968 24.4032 14.8378 21 14.8378ZM21 25C18.7909 25 17 23.2091 17 21C17 18.7909 18.7909 17 21 17C23.2091 17 25 18.7909 25 21C25 23.2091 23.2091 25 21 25ZM28.8456 14.5944C28.8456 15.3897 28.2009 16.0344 27.4056 16.0344C26.6103 16.0344 25.9656 15.3897 25.9656 14.5944C25.9656 13.7991 26.6103 13.1544 27.4056 13.1544C28.2009 13.1544 28.8456 13.7991 28.8456 14.5944Z" fill="#FEFDFF"/>
</svg>
