<svg width="42" height="42" viewBox="0 0 42 42" fill="none" xmlns="http://www.w3.org/2000/svg">
<rect x="0.5" y="0.5" width="41" height="41" rx="20.5" stroke="#4F4F4F"/>
<path d="M31.2243 10H10.7709C10.7645 10 10.7573 10 10.7493 10C9.78981 10 9.0112 10.7071 9 11.5837V30.4148C9.0112 31.2921 9.78981 32 10.7493 32C10.7573 32 10.7645 32 10.7725 32H31.2219C31.2283 32 31.2363 32 31.2443 32C32.2046 32 32.9848 31.2936 33 30.4163V30.4148V11.5852C32.9848 10.7071 32.2046 10 31.2435 10C31.2355 10 31.2283 10 31.2203 10H31.2243ZM16.1179 28.7475H12.5537V18.25H16.1179V28.7475ZM14.3366 16.8138C13.1963 16.8138 12.2729 15.9665 12.2729 14.922C12.2729 13.8774 13.1971 13.0302 14.3366 13.0302C15.4761 13.0302 16.4004 13.8767 16.4004 14.9212C16.4004 14.922 16.4004 14.9227 16.4004 14.9242C16.4004 15.968 15.4769 16.8145 14.3382 16.8145C14.3374 16.8145 14.3366 16.8145 14.3358 16.8145L14.3366 16.8138ZM29.4463 28.7475H25.8925V23.6429C25.8925 22.4252 25.8653 20.8592 24.0408 20.8592C22.1875 20.8592 21.905 22.1839 21.905 23.5534V28.7483H18.3513V18.2507H21.765V19.6818H21.8114C22.474 18.6586 23.6727 17.9837 25.0435 17.9837C25.0923 17.9837 25.1403 17.9845 25.1883 17.9859H25.1811C28.7821 17.9859 29.4479 20.1586 29.4479 22.9864V28.7483L29.4463 28.7475Z" fill="#FEFDFF"/>
</svg>
