<svg width="30" height="30" viewBox="0 0 30 30" fill="none" xmlns="http://www.w3.org/2000/svg">
<path d="M24.7758 8.22733L20.7804 12.2228L17.952 9.39436L21.946 5.40031C20.8277 4.8662 19.5714 4.6915 18.3498 4.90022C17.1281 5.10893 16.0011 5.69082 15.1235 6.56593C14.3804 7.31069 13.8462 8.23777 13.5745 9.25416C13.3027 10.2705 13.303 11.3405 13.5753 12.3568L6.63824 19.2939C5.46303 20.4691 5.46303 22.3613 6.63824 23.5365C7.81346 24.7117 9.70567 24.7117 10.8809 23.5365L17.8194 16.598C18.8353 16.8702 19.9049 16.8706 20.921 16.5991C21.9371 16.3276 22.864 15.7938 23.6088 15.0512C24.4844 14.1737 25.0668 13.0465 25.2757 11.8246C25.4847 10.6026 25.3101 9.34597 24.7758 8.22733Z" fill="#111116"/>
</svg>
