<svg width="42" height="42" viewBox="0 0 42 42" fill="none" xmlns="http://www.w3.org/2000/svg">
<rect x="0.5" y="0.5" width="41" height="41" rx="20.5" stroke="#4F4F4F"/>
<path fill-rule="evenodd" clip-rule="evenodd" d="M18.5861 24.1034V17.3693C20.9768 18.4942 22.8283 19.5809 25.0181 20.7525C23.212 21.7541 20.9768 22.878 18.5861 24.1034ZM31.9092 14.02C31.4968 13.4767 30.794 13.0538 30.0457 12.9138C27.8463 12.4961 14.1252 12.4949 11.927 12.9138C11.3269 13.0263 10.7926 13.2982 10.3336 13.7206C8.39957 15.5157 9.0056 25.1421 9.47178 26.7015C9.66781 27.3764 9.92123 27.8632 10.2404 28.1827C10.6516 28.6052 11.2146 28.896 11.8612 29.0265C13.6721 29.4011 23.0016 29.6105 30.0074 29.0827C30.6529 28.9702 31.2243 28.67 31.6749 28.2296C33.4631 26.4417 33.3412 16.2747 31.9092 14.02Z" fill="#FEFDFF"/>
</svg>
